<svg xmlns="http://www.w3.org/2000/svg" viewBox="0 0 16 16" fill="none" class="size-5"><path d="M8 2C5.5 2 3.5 4 3.5 6.5S5 10.5 6.5 11v1.5H8V11c.3.1.7.1 1 0v1.5h1.5V11c1.5-.5 3-2.5 3-4.5S10.5 2 8 2Z" fill="#E8453A"></path><path d="M3.5 5.5C2 5 1 6 1.5 7s2 .5 2.2-.7" fill="#FF6B5A"></path><path d="M12.5 5.5c1.5-.5 2.5.5 2 1.5s-2 .5-2.2-.7" fill="#FF6B5A"></path><path d="M6.5 3Q5 1.2 4.3 1.5" stroke="#FF6B5A" stroke-width="0.8" stroke-linecap="round"></path><path d="M9.5 3Q11 1.2 11.7 1.5" stroke="#FF6B5A" stroke-width="0.8" stroke-linecap="round"></path><circle cx="6.2" cy="5.2" r="0.9" fill="#050810"></circle><circle cx="9.8" cy="5.2" r="0.9" fill="#050810"></circle><circle cx="6.4" cy="5" r="0.3" fill="#00E5CC"></circle><circle cx="10" cy="5" r="0.3" fill="#00E5CC"></circle></svg>
